<svg height="800" viewBox="0 0 32 32" width="800" xmlns="http://www.w3.org/2000/svg"><path d="m11.188 4.781c6.188 0 11.219 5.031 11.219 11.219s-5.031 11.188-11.219 11.188-11.188-5-11.188-11.188 5-11.219 11.188-11.219zm.062 12.844 3.563 3.594c.438.438 1.156.438 1.594 0 .406-.406.406-1.125 0-1.563l-3.563-3.594 3.563-3.594c.406-.438.406-1.156 0-1.563-.438-.438-1.156-.438-1.594 0l-3.563 3.594-3.563-3.594c-.438-.438-1.156-.438-1.594 0-.406.406-.406 1.125 0 1.563l3.563 3.594-3.563 3.594c-.406.438-.406 1.156 0 1.563.438.438 1.156.438 1.594 0z"/></svg>